<svg width="24" height="24" viewBox="0 0 24 24" fill="none" xmlns="http://www.w3.org/2000/svg">
<path d="M19.4766 2H17.9766V0.5C17.9766 0.224 17.7526 0 17.4766 0C17.2006 0 16.9766 0.224 16.9766 0.5V2H6.97656V0.5C6.97656 0.224 6.75256 0 6.47656 0C6.20056 0 5.97656 0.224 5.97656 0.5V2H4.47656C1.99456 2 -0.0234375 4.019 -0.0234375 6.5V19.5C-0.0234375 21.981 1.99556 24 4.47656 24H12.4766C12.7526 24 12.9766 23.776 12.9766 23.5C12.9766 23.224 12.7526 23 12.4766 23H4.47656C2.54656 23 0.976562 21.43 0.976562 19.5V9H22.9766V11.5C22.9766 11.776 23.2006 12 23.4766 12C23.7526 12 23.9766 11.776 23.9766 11.5V6.5C23.9766 4.019 21.9576 2 19.4766 2ZM0.976562 8V6.5C0.976562 4.57 2.54656 3 4.47656 3H19.4766C21.4066 3 22.9766 4.57 22.9766 6.5V8H0.976562ZM23.0376 15.365C22.4226 13.415 20.5046 12 18.4766 12C16.3196 12 14.3896 13.551 13.8846 15.693L13.0156 19.607C12.8956 20.189 13.0416 20.788 13.4186 21.251C13.8046 21.727 14.3806 22 14.9996 22H16.1406C16.3216 23.131 17.2966 24 18.4776 24C19.6586 24 20.6336 23.131 20.8146 22H21.9516C22.5706 22 23.1476 21.727 23.5336 21.25C23.9096 20.785 24.0556 20.185 23.9336 19.602L23.0386 15.365H23.0376ZM18.4766 23C17.8496 23 17.3246 22.575 17.1606 22H19.7936C19.6296 22.575 19.1036 23 18.4766 23ZM22.7546 20.621C22.5596 20.862 22.2666 21 21.9506 21H14.9986C14.6826 21 14.3896 20.862 14.1946 20.621C14.0086 20.392 13.9356 20.097 13.9936 19.817L14.8596 15.916C15.2576 14.226 16.7786 12.999 18.4766 12.999C20.0796 12.999 21.5966 14.12 22.0716 15.618L22.9546 19.807C23.0146 20.094 22.9426 20.39 22.7556 20.62L22.7546 20.621Z" fill="#1E1E1E"/>
</svg>
