<svg width="100" height="100" viewBox="0 0 100 100" fill="none" xmlns="http://www.w3.org/2000/svg">
<rect width="100" height="100" rx="50" fill="#F2F6FF"/>
<path d="M65.0053 38.9126L44.8544 58.2864C44.7189 58.4172 44.5579 58.5209 44.3806 58.5918C44.2033 58.6626 44.0132 58.699 43.8212 58.699C43.6292 58.699 43.4391 58.6626 43.2619 58.5918C43.0846 58.5209 42.9236 58.4172 42.7881 58.2864L34.9954 50.7867C34.8599 50.6559 34.6989 50.5522 34.5216 50.4814C34.3443 50.4106 34.1543 50.3741 33.9623 50.3741C33.7703 50.3741 33.5802 50.4106 33.4029 50.4814C33.2256 50.5522 33.0646 50.6559 32.9291 50.7867C32.7931 50.917 32.6852 51.0718 32.6116 51.2423C32.5379 51.4127 32.5 51.5955 32.5 51.7801C32.5 51.9647 32.5379 52.1475 32.6116 52.3179C32.6852 52.4884 32.7931 52.6432 32.9291 52.7735L40.7247 60.2675C41.5471 61.0567 42.6615 61.5 43.8234 61.5C44.9853 61.5 46.0997 61.0567 46.9221 60.2675L67.0716 40.8979C67.2074 40.7677 67.3151 40.613 67.3886 40.4426C67.4622 40.2723 67.5 40.0897 67.5 39.9053C67.5 39.7209 67.4622 39.5382 67.3886 39.3679C67.3151 39.1976 67.2074 39.0429 67.0716 38.9126C66.9361 38.7818 66.7751 38.6781 66.5978 38.6073C66.4205 38.5364 66.2304 38.5 66.0385 38.5C65.8465 38.5 65.6564 38.5364 65.4791 38.6073C65.3018 38.6781 65.1408 38.7818 65.0053 38.9126Z" fill="#155DFC"/>
</svg>
