<svg width="153" height="75" viewBox="0 0 153 75" fill="none" xmlns="http://www.w3.org/2000/svg">
<path d="M76.3515 4.85156C76.73 4.97945 76.9053 5.27853 77.1554 5.58497C77.2079 5.64711 77.2079 5.64711 77.2614 5.71051C78.166 6.78202 78.9545 7.99048 79.4064 9.33349C79.4317 9.40398 79.4571 9.47446 79.4833 9.54708C79.9364 11.0258 79.6788 12.6255 79.0044 13.9784C78.9757 14.0384 78.947 14.0984 78.9174 14.1602C78.618 14.749 78.204 15.2552 77.7985 15.7712C77.7411 15.8448 77.6837 15.9184 77.6246 15.9943C77.2974 16.4028 76.9085 16.7382 76.5123 17.075C75.0758 16.4072 73.9852 14.4379 73.4477 13.0047C72.9166 11.3228 73.2611 9.64908 74.0201 8.11115C74.5183 7.14083 75.1798 6.30014 75.8657 5.46051C76.0298 5.2592 76.1911 5.05585 76.3515 4.85156ZM76.203 7.51876C75.381 8.44302 74.761 9.42487 74.2613 10.5558C74.2304 10.624 74.1996 10.6922 74.1677 10.7624C73.8666 11.5711 73.871 12.8116 74.1731 13.619C74.2168 13.7162 74.2168 13.7162 74.2613 13.8154C74.2996 13.9046 74.3378 13.9938 74.3772 14.0857C74.85 15.1165 75.5508 15.8864 76.3515 16.6676C76.676 16.5357 76.8987 16.304 77.1403 16.0564C77.1831 16.0126 77.2258 15.9688 77.2699 15.9236C78.3399 14.8057 78.9594 13.4699 78.9469 11.9039C78.8373 10.5233 78.1131 9.35647 77.3061 8.28431C77.2734 8.24069 77.2406 8.19707 77.2069 8.15213C76.9932 7.87337 76.7697 7.61582 76.5123 7.37774C76.3371 7.35917 76.3371 7.35917 76.203 7.51876Z" fill="#0959A6"/>
<path d="M59.7252 23.6465L57.3486 18.5104C57.3463 18.5055 57.3499 18.5 57.3552 18.5C57.356 18.5 57.3569 18.5001 57.3577 18.5004L61.5431 20.0224C61.7353 20.0923 61.9015 20.2195 62.0192 20.3868L64.1078 23.3555C64.1462 23.41 64.1898 23.4605 64.2382 23.5063L67.1737 26.2852C67.2184 26.3275 67.267 26.3657 67.3188 26.3991L70.343 28.3514C70.434 28.4102 70.534 28.4538 70.639 28.4805L72.8998 29.0553L75.9658 29.4483C76.0537 29.4596 76.1427 29.4591 76.2305 29.4469L79.0507 29.0553L81.3881 28.4402L82.6727 27.9341C82.7183 27.9161 82.7626 27.8948 82.8051 27.8703L84.0945 27.128L86.2935 25.518C86.3581 25.4706 86.4169 25.4157 86.4684 25.3543L87.2519 24.4216L88.1541 23.3964L90.177 20.4305C90.3095 20.2363 90.5061 20.0949 90.7324 20.0313L95.6282 18.6546L95.6334 18.6449C95.6362 18.6398 95.6439 18.6431 95.6421 18.6485C95.6416 18.65 95.6404 18.6512 95.6389 18.6516L95.6282 18.6546L92.9416 23.6669C92.9212 23.7051 92.896 23.7406 92.8666 23.7725L90.6859 26.148C90.6384 26.1997 90.5856 26.2463 90.5283 26.287L87.785 28.2351L84.8456 29.7843C84.7824 29.8176 84.7159 29.844 84.647 29.8631L81.155 30.8331C81.0918 30.8507 81.0271 30.862 80.9617 30.8668L77.2054 31.1466H74.8271L72.8672 31.029C72.807 31.0254 72.7473 31.0163 72.6888 31.002L68.5411 29.9846C68.4674 29.9665 68.3959 29.9401 68.3281 29.9058L64.8492 28.1468C64.8035 28.1237 64.7597 28.0971 64.718 28.0673L62.1096 26.1986C62.0587 26.1621 62.0114 26.121 61.9683 26.0758L59.9091 23.9167C59.8334 23.8373 59.7713 23.746 59.7252 23.6465Z" fill="#F3A532"/>
<path d="M78.6762 19.7128L78.2118 20.907C78.1657 21.0254 78.0931 21.1315 77.9995 21.2174L77.8465 21.3576C77.7246 21.4693 77.5526 21.5081 77.3946 21.4595C77.2245 21.4071 77.0991 21.2625 77.0713 21.0867L77.02 20.7621C77.0026 20.6514 77.004 20.5385 77.0242 20.4283L77.2804 19.0309C77.3897 18.4347 77.5568 17.8506 77.7795 17.2869L78.1941 16.2375C78.5678 15.2916 79.0592 14.3965 79.6566 13.5734L79.7135 13.495C80.3034 12.6823 80.9982 11.9512 81.7798 11.3209C82.6843 10.5914 83.6952 10.0048 84.7772 9.5814L84.9172 9.52664C86.2406 9.0088 87.6433 8.72311 89.0638 8.68213L90.1173 8.65174C90.8237 8.63137 91.5296 8.70657 92.2159 8.87532L93.5269 9.19771C93.6301 9.22309 93.7275 9.26794 93.8139 9.32986C94.3862 9.73999 94.2252 10.6307 93.5456 10.8147L93.1374 10.9251C92.9578 10.9737 92.7946 11.0699 92.665 11.2034L91.4139 12.4918C90.5611 13.3701 89.9337 14.4418 89.5855 15.6155L89.3153 16.5261C89.1112 17.2141 88.8428 17.8814 88.5136 18.5191L88.4376 18.6664C87.518 20.448 86.2047 21.9967 84.5973 23.195L83.9486 23.6785C83.007 24.3805 81.9731 24.9492 80.8761 25.3686L80.7374 25.4217C79.1612 26.0243 77.4762 26.2899 75.7911 26.2012C74.3892 26.1274 73.0109 25.8097 71.7182 25.2623L71.1974 25.0418C69.8224 24.4596 68.5539 23.6525 67.444 22.6535C66.1146 21.4571 65.0372 20.0076 64.2748 18.3898L63.7486 17.2733L62.9803 14.9682C62.7293 14.2154 62.3382 13.5169 61.8275 12.9096L61.3103 12.2946C61.1602 12.1161 60.9788 11.9664 60.7749 11.8529L58.6969 10.6963C58.1489 10.3913 58.191 9.58963 58.7679 9.3437C58.8078 9.32669 58.8491 9.31316 58.8914 9.30325L60.2135 8.99295C61.9498 8.58546 63.7519 8.5443 65.505 8.87211L65.7742 8.92245C67.1725 9.18393 68.5095 9.70514 69.7158 10.4591C70.6803 11.0619 71.5491 11.8059 72.2931 12.6662L72.7852 13.2351C73.4559 14.0106 74.0271 14.8668 74.4856 15.7839C74.9799 16.7724 75.3388 17.8229 75.5528 18.9071L75.8455 20.3898L75.8864 20.8193C75.9108 21.0757 75.7647 21.318 75.5265 21.416L75.5135 21.4214C75.3371 21.494 75.1358 21.4718 74.9795 21.3624C74.8764 21.2902 74.8006 21.1853 74.7645 21.0648L74.6973 20.8409L74.2911 19.9309C73.8819 19.0144 73.3083 18.1807 72.5985 17.4709L71.6805 16.5528C71.5875 16.4599 71.4784 16.3844 71.3586 16.3302C70.6363 16.0035 69.8176 16.5317 69.8176 17.3245V17.9258C69.8176 18.0642 69.837 18.202 69.8753 18.335L70.1087 19.1459C70.4296 20.2605 71.0059 21.285 71.792 22.1379L71.8455 22.196C72.2956 22.6844 72.8113 23.1081 73.3778 23.4549L73.6671 23.6321C74.2395 23.9825 74.8723 24.2229 75.533 24.3409L75.8238 24.3928C76.4846 24.5108 77.1641 24.4679 77.8048 24.2677C78.0291 24.1976 78.247 24.1087 78.4563 24.002L78.8822 23.7849C79.7753 23.3296 80.5779 22.7152 81.2505 21.9718L81.4484 21.753C81.6765 21.5009 81.8794 21.2271 82.0544 20.9356C82.3687 20.4118 82.5887 19.8369 82.7044 19.2371L82.9558 17.9346C82.9722 17.8493 82.9805 17.7627 82.9805 17.6759V16.8077C82.9805 16.2482 82.4121 15.8683 81.8952 16.0822C81.8263 16.1107 81.7618 16.1489 81.7037 16.1956L80.6103 17.0739C79.7453 17.7687 79.0783 18.6788 78.6762 19.7128Z" fill="#F3A532"/>
<path d="M46.2693 37.1134C47.2313 37.1134 48.0719 37.2998 48.7913 37.6724C49.5193 38.0364 50.0783 38.5651 50.4683 39.2584C50.8669 39.9431 51.0663 40.7448 51.0663 41.6634C51.0663 42.5821 50.8669 43.3794 50.4683 44.0554C50.0783 44.7314 49.5193 45.2514 48.7913 45.6154C48.0719 45.9708 47.2313 46.1484 46.2693 46.1484H43.3183V37.1134H46.2693ZM46.2693 44.9394C47.3266 44.9394 48.1369 44.6534 48.7003 44.0814C49.2636 43.5094 49.5453 42.7034 49.5453 41.6634C49.5453 40.6148 49.2636 39.7958 48.7003 39.2064C48.1369 38.6171 47.3266 38.3224 46.2693 38.3224H44.8003V44.9394H46.2693ZM54.0171 40.0254C54.2337 39.6614 54.5197 39.3798 54.8751 39.1804C55.2391 38.9724 55.6681 38.8684 56.1621 38.8684V40.4024H55.7851C55.2044 40.4024 54.7624 40.5498 54.4591 40.8444C54.1644 41.1391 54.0171 41.6504 54.0171 42.3784V46.1484H52.5351V38.9854H54.0171V40.0254ZM63.8523 37.1134C64.8143 37.1134 65.6549 37.2998 66.3743 37.6724C67.1023 38.0364 67.6613 38.5651 68.0513 39.2584C68.4499 39.9431 68.6493 40.7448 68.6493 41.6634C68.6493 42.5821 68.4499 43.3794 68.0513 44.0554C67.6613 44.7314 67.1023 45.2514 66.3743 45.6154C65.6549 45.9708 64.8143 46.1484 63.8523 46.1484H60.9013V37.1134H63.8523ZM63.8523 44.9394C64.9096 44.9394 65.7199 44.6534 66.2833 44.0814C66.8466 43.5094 67.1283 42.7034 67.1283 41.6634C67.1283 40.6148 66.8466 39.7958 66.2833 39.2064C65.7199 38.6171 64.9096 38.3224 63.8523 38.3224H62.3833V44.9394H63.8523ZM69.6241 42.5344C69.6241 41.8151 69.7714 41.1781 70.0661 40.6234C70.3694 40.0688 70.7767 39.6398 71.2881 39.3364C71.8081 39.0244 72.3801 38.8684 73.0041 38.8684C73.5674 38.8684 74.0571 38.9811 74.4731 39.2064C74.8977 39.4231 75.2357 39.6961 75.4871 40.0254V38.9854H76.9821V46.1484H75.4871V45.0824C75.2357 45.4204 74.8934 45.7021 74.4601 45.9274C74.0267 46.1528 73.5327 46.2654 72.9781 46.2654C72.3627 46.2654 71.7994 46.1094 71.2881 45.7974C70.7767 45.4768 70.3694 45.0348 70.0661 44.4714C69.7714 43.8994 69.6241 43.2538 69.6241 42.5344ZM75.4871 42.5604C75.4871 42.0664 75.3831 41.6374 75.1751 41.2734C74.9757 40.9094 74.7114 40.6321 74.3821 40.4414C74.0527 40.2508 73.6974 40.1554 73.3161 40.1554C72.9347 40.1554 72.5794 40.2508 72.2501 40.4414C71.9207 40.6234 71.6521 40.8964 71.4441 41.2604C71.2447 41.6158 71.1451 42.0404 71.1451 42.5344C71.1451 43.0284 71.2447 43.4618 71.4441 43.8344C71.6521 44.2071 71.9207 44.4931 72.2501 44.6924C72.5881 44.8831 72.9434 44.9784 73.3161 44.9784C73.6974 44.9784 74.0527 44.8831 74.3821 44.6924C74.7114 44.5018 74.9757 44.2244 75.1751 43.8604C75.3831 43.4878 75.4871 43.0544 75.4871 42.5604ZM80.4106 40.0254C80.6273 39.6614 80.9133 39.3798 81.2686 39.1804C81.6326 38.9724 82.0616 38.8684 82.5556 38.8684V40.4024H82.1786C81.5979 40.4024 81.1559 40.5498 80.8526 40.8444C80.5579 41.1391 80.4106 41.6504 80.4106 42.3784V46.1484H78.9286V38.9854H80.4106V40.0254ZM83.4239 42.5344C83.4239 41.8151 83.5712 41.1781 83.8659 40.6234C84.1692 40.0688 84.5765 39.6398 85.0879 39.3364C85.6079 39.0244 86.1842 38.8684 86.8169 38.8684C87.2849 38.8684 87.7442 38.9724 88.1949 39.1804C88.6542 39.3798 89.0182 39.6484 89.2869 39.9864V36.5284H90.7819V46.1484H89.2869V45.0694C89.0442 45.4161 88.7062 45.7021 88.2729 45.9274C87.8482 46.1528 87.3585 46.2654 86.8039 46.2654C86.1799 46.2654 85.6079 46.1094 85.0879 45.7974C84.5765 45.4768 84.1692 45.0348 83.8659 44.4714C83.5712 43.8994 83.4239 43.2538 83.4239 42.5344ZM89.2869 42.5604C89.2869 42.0664 89.1829 41.6374 88.9749 41.2734C88.7755 40.9094 88.5112 40.6321 88.1819 40.4414C87.8525 40.2508 87.4972 40.1554 87.1159 40.1554C86.7345 40.1554 86.3792 40.2508 86.0499 40.4414C85.7205 40.6234 85.4519 40.8964 85.2439 41.2604C85.0445 41.6158 84.9449 42.0404 84.9449 42.5344C84.9449 43.0284 85.0445 43.4618 85.2439 43.8344C85.4519 44.2071 85.7205 44.4931 86.0499 44.6924C86.3879 44.8831 86.7432 44.9784 87.1159 44.9784C87.4972 44.9784 87.8525 44.8831 88.1819 44.6924C88.5112 44.5018 88.7755 44.2244 88.9749 43.8604C89.1829 43.4878 89.2869 43.0544 89.2869 42.5604ZM92.2344 42.5344C92.2344 41.8151 92.3818 41.1781 92.6764 40.6234C92.9798 40.0688 93.3871 39.6398 93.8984 39.3364C94.4184 39.0244 94.9904 38.8684 95.6144 38.8684C96.1778 38.8684 96.6674 38.9811 97.0834 39.2064C97.5081 39.4231 97.8461 39.6961 98.0974 40.0254V38.9854H99.5924V46.1484H98.0974V45.0824C97.8461 45.4204 97.5038 45.7021 97.0704 45.9274C96.6371 46.1528 96.1431 46.2654 95.5884 46.2654C94.9731 46.2654 94.4098 46.1094 93.8984 45.7974C93.3871 45.4768 92.9798 45.0348 92.6764 44.4714C92.3818 43.8994 92.2344 43.2538 92.2344 42.5344ZM98.0974 42.5604C98.0974 42.0664 97.9934 41.6374 97.7854 41.2734C97.5861 40.9094 97.3218 40.6321 96.9924 40.4414C96.6631 40.2508 96.3078 40.1554 95.9264 40.1554C95.5451 40.1554 95.1898 40.2508 94.8604 40.4414C94.5311 40.6234 94.2624 40.8964 94.0544 41.2604C93.8551 41.6158 93.7554 42.0404 93.7554 42.5344C93.7554 43.0284 93.8551 43.4618 94.0544 43.8344C94.2624 44.2071 94.5311 44.4931 94.8604 44.6924C95.1984 44.8831 95.5538 44.9784 95.9264 44.9784C96.3078 44.9784 96.6631 44.8831 96.9924 44.6924C97.3218 44.5018 97.5861 44.2244 97.7854 43.8604C97.9934 43.4878 98.0974 43.0544 98.0974 42.5604ZM101.773 37.1134H103.385L102.02 40.2074H100.98L101.773 37.1134ZM107.287 46.2654C106.724 46.2654 106.217 46.1658 105.766 45.9664C105.324 45.7584 104.973 45.4811 104.713 45.1344C104.453 44.7791 104.315 44.3848 104.297 43.9514H105.831C105.857 44.2548 106 44.5104 106.26 44.7184C106.529 44.9178 106.863 45.0174 107.261 45.0174C107.677 45.0174 107.998 44.9394 108.223 44.7834C108.457 44.6188 108.574 44.4108 108.574 44.1594C108.574 43.8908 108.444 43.6914 108.184 43.5614C107.933 43.4314 107.53 43.2884 106.975 43.1324C106.438 42.9851 106 42.8421 105.662 42.7034C105.324 42.5648 105.03 42.3524 104.778 42.0664C104.536 41.7804 104.414 41.4034 104.414 40.9354C104.414 40.5541 104.527 40.2074 104.752 39.8954C104.978 39.5748 105.298 39.3234 105.714 39.1414C106.139 38.9594 106.624 38.8684 107.17 38.8684C107.985 38.8684 108.639 39.0764 109.133 39.4924C109.636 39.8998 109.905 40.4588 109.939 41.1694H108.457C108.431 40.8488 108.301 40.5931 108.067 40.4024C107.833 40.2118 107.517 40.1164 107.118 40.1164C106.728 40.1164 106.429 40.1901 106.221 40.3374C106.013 40.4848 105.909 40.6798 105.909 40.9224C105.909 41.1131 105.979 41.2734 106.117 41.4034C106.256 41.5334 106.425 41.6374 106.624 41.7154C106.824 41.7848 107.118 41.8758 107.508 41.9884C108.028 42.1271 108.453 42.2701 108.782 42.4174C109.12 42.5561 109.411 42.7641 109.653 43.0414C109.896 43.3188 110.022 43.6871 110.03 44.1464C110.03 44.5538 109.918 44.9178 109.692 45.2384C109.467 45.5591 109.146 45.8104 108.73 45.9924C108.323 46.1744 107.842 46.2654 107.287 46.2654Z" fill="#0057B7"/>
<path d="M22.4625 65.1484H20.9805L16.5215 58.4014V65.1484H15.0395V56.1004H16.5215L20.9805 62.8344V56.1004H22.4625V65.1484ZM25.1626 57.0364C24.8939 57.0364 24.6686 56.9454 24.4866 56.7634C24.3046 56.5814 24.2136 56.3561 24.2136 56.0874C24.2136 55.8188 24.3046 55.5934 24.4866 55.4114C24.6686 55.2294 24.8939 55.1384 25.1626 55.1384C25.4226 55.1384 25.6436 55.2294 25.8256 55.4114C26.0076 55.5934 26.0986 55.8188 26.0986 56.0874C26.0986 56.3561 26.0076 56.5814 25.8256 56.7634C25.6436 56.9454 25.4226 57.0364 25.1626 57.0364ZM25.8906 57.9854V65.1484H24.4086V57.9854H25.8906ZM29.3183 59.0254C29.535 58.6614 29.821 58.3798 30.1763 58.1804C30.5403 57.9724 30.9693 57.8684 31.4633 57.8684V59.4024H31.0863C30.5057 59.4024 30.0637 59.5498 29.7603 59.8444C29.4657 60.1391 29.3183 60.6504 29.3183 61.3784V65.1484H27.8363V57.9854H29.3183V59.0254ZM41.4966 57.8684C42.0599 57.8684 42.5626 57.9854 43.0046 58.2194C43.4553 58.4534 43.8063 58.8001 44.0576 59.2594C44.3176 59.7188 44.4476 60.2734 44.4476 60.9234V65.1484H42.9786V61.1444C42.9786 60.5031 42.8183 60.0134 42.4976 59.6754C42.1769 59.3288 41.7393 59.1554 41.1846 59.1554C40.6299 59.1554 40.1879 59.3288 39.8586 59.6754C39.5379 60.0134 39.3776 60.5031 39.3776 61.1444V65.1484H37.9086V61.1444C37.9086 60.5031 37.7483 60.0134 37.4276 59.6754C37.1069 59.3288 36.6693 59.1554 36.1146 59.1554C35.5599 59.1554 35.1179 59.3288 34.7886 59.6754C34.4679 60.0134 34.3076 60.5031 34.3076 61.1444V65.1484H32.8256V57.9854H34.3076V58.8044C34.5503 58.5098 34.8579 58.2801 35.2306 58.1154C35.6033 57.9508 36.0019 57.8684 36.4266 57.8684C36.9986 57.8684 37.5099 57.9898 37.9606 58.2324C38.4113 58.4751 38.7579 58.8261 39.0006 59.2854C39.2173 58.8521 39.5553 58.5098 40.0146 58.2584C40.4739 57.9984 40.9679 57.8684 41.4966 57.8684ZM45.8394 61.5344C45.8394 60.8151 45.9867 60.1781 46.2814 59.6234C46.5847 59.0688 46.9921 58.6398 47.5034 58.3364C48.0234 58.0244 48.5954 57.8684 49.2194 57.8684C49.7827 57.8684 50.2724 57.9811 50.6884 58.2064C51.1131 58.4231 51.4511 58.6961 51.7024 59.0254V57.9854H53.1974V65.1484H51.7024V64.0824C51.4511 64.4204 51.1087 64.7021 50.6754 64.9274C50.2421 65.1528 49.7481 65.2654 49.1934 65.2654C48.5781 65.2654 48.0147 65.1094 47.5034 64.7974C46.9921 64.4768 46.5847 64.0348 46.2814 63.4714C45.9867 62.8994 45.8394 62.2538 45.8394 61.5344ZM51.7024 61.5604C51.7024 61.0664 51.5984 60.6374 51.3904 60.2734C51.1911 59.9094 50.9267 59.6321 50.5974 59.4414C50.2681 59.2508 49.9127 59.1554 49.5314 59.1554C49.1501 59.1554 48.7947 59.2508 48.4654 59.4414C48.1361 59.6234 47.8674 59.8964 47.6594 60.2604C47.4601 60.6158 47.3604 61.0404 47.3604 61.5344C47.3604 62.0284 47.4601 62.4618 47.6594 62.8344C47.8674 63.2071 48.1361 63.4931 48.4654 63.6924C48.8034 63.8831 49.1587 63.9784 49.5314 63.9784C49.9127 63.9784 50.2681 63.8831 50.5974 63.6924C50.9267 63.5018 51.1911 63.2244 51.3904 62.8604C51.5984 62.4878 51.7024 62.0544 51.7024 61.5604ZM56.6259 55.5284V65.1484H55.1439V55.5284H56.6259ZM69.1636 56.1134V65.1484H67.6816V61.1964H63.4306V65.1484H61.9486V56.1134H63.4306V59.9874H67.6816V56.1134H69.1636ZM77.6796 61.3914C77.6796 61.6601 77.6623 61.9028 77.6276 62.1194H72.1546C72.198 62.6914 72.4103 63.1508 72.7916 63.4974C73.173 63.8441 73.641 64.0174 74.1956 64.0174C74.993 64.0174 75.5563 63.6838 75.8856 63.0164H77.4846C77.268 63.6751 76.8736 64.2168 76.3016 64.6414C75.7383 65.0574 75.0363 65.2654 74.1956 65.2654C73.511 65.2654 72.8956 65.1138 72.3496 64.8104C71.8123 64.4984 71.3876 64.0651 71.0756 63.5104C70.7723 62.9471 70.6206 62.2971 70.6206 61.5604C70.6206 60.8238 70.768 60.1781 71.0626 59.6234C71.366 59.0601 71.7863 58.6268 72.3236 58.3234C72.8696 58.0201 73.4936 57.8684 74.1956 57.8684C74.8716 57.8684 75.474 58.0158 76.0026 58.3104C76.5313 58.6051 76.943 59.0211 77.2376 59.5584C77.5323 60.0871 77.6796 60.6981 77.6796 61.3914ZM76.1326 60.9234C76.124 60.3774 75.929 59.9398 75.5476 59.6104C75.1663 59.2811 74.694 59.1164 74.1306 59.1164C73.6193 59.1164 73.1816 59.2811 72.8176 59.6104C72.4536 59.9311 72.237 60.3688 72.1676 60.9234H76.1326ZM78.6441 61.5344C78.6441 60.8151 78.7914 60.1781 79.0861 59.6234C79.3894 59.0688 79.7968 58.6398 80.3081 58.3364C80.8281 58.0244 81.4001 57.8684 82.0241 57.8684C82.5874 57.8684 83.0771 57.9811 83.4931 58.2064C83.9178 58.4231 84.2558 58.6961 84.5071 59.0254V57.9854H86.0021V65.1484H84.5071V64.0824C84.2558 64.4204 83.9134 64.7021 83.4801 64.9274C83.0468 65.1528 82.5528 65.2654 81.9981 65.2654C81.3828 65.2654 80.8194 65.1094 80.3081 64.7974C79.7968 64.4768 79.3894 64.0348 79.0861 63.4714C78.7914 62.8994 78.6441 62.2538 78.6441 61.5344ZM84.5071 61.5604C84.5071 61.0664 84.4031 60.6374 84.1951 60.2734C83.9958 59.9094 83.7314 59.6321 83.4021 59.4414C83.0728 59.2508 82.7174 59.1554 82.3361 59.1554C81.9548 59.1554 81.5994 59.2508 81.2701 59.4414C80.9408 59.6234 80.6721 59.8964 80.4641 60.2604C80.2648 60.6158 80.1651 61.0404 80.1651 61.5344C80.1651 62.0284 80.2648 62.4618 80.4641 62.8344C80.6721 63.2071 80.9408 63.4931 81.2701 63.6924C81.6081 63.8831 81.9634 63.9784 82.3361 63.9784C82.7174 63.9784 83.0728 63.8831 83.4021 63.6924C83.7314 63.5018 83.9958 63.2244 84.1951 62.8604C84.4031 62.4878 84.5071 62.0544 84.5071 61.5604ZM89.4306 55.5284V65.1484H87.9486V55.5284H89.4306ZM93.1054 59.1944V63.1594C93.1054 63.4281 93.166 63.6231 93.2874 63.7444C93.4174 63.8571 93.634 63.9134 93.9374 63.9134H94.8474V65.1484H93.6774C93.01 65.1484 92.4987 64.9924 92.1434 64.6804C91.788 64.3684 91.6104 63.8614 91.6104 63.1594V59.1944H90.7654V57.9854H91.6104V56.2044H93.1054V57.9854H94.8474V59.1944H93.1054ZM99.9183 57.8684C100.464 57.8684 100.95 57.9854 101.374 58.2194C101.808 58.4534 102.146 58.8001 102.388 59.2594C102.64 59.7188 102.765 60.2734 102.765 60.9234V65.1484H101.296V61.1444C101.296 60.5031 101.136 60.0134 100.815 59.6754C100.495 59.3288 100.057 59.1554 99.5023 59.1554C98.9476 59.1554 98.5056 59.3288 98.1763 59.6754C97.8556 60.0134 97.6953 60.5031 97.6953 61.1444V65.1484H96.2133V55.5284H97.6953V58.8174C97.9466 58.5141 98.2629 58.2801 98.6443 58.1154C99.0343 57.9508 99.4589 57.8684 99.9183 57.8684ZM107.539 60.6114C107.539 59.7274 107.742 58.9344 108.15 58.2324C108.566 57.5304 109.125 56.9844 109.827 56.5944C110.537 56.1958 111.313 55.9964 112.154 55.9964C113.116 55.9964 113.969 56.2348 114.715 56.7114C115.469 57.1794 116.015 57.8468 116.353 58.7134H114.572C114.338 58.2368 114.013 57.8814 113.597 57.6474C113.181 57.4134 112.7 57.2964 112.154 57.2964C111.556 57.2964 111.023 57.4308 110.555 57.6994C110.087 57.9681 109.718 58.3538 109.45 58.8564C109.19 59.3591 109.06 59.9441 109.06 60.6114C109.06 61.2788 109.19 61.8638 109.45 62.3664C109.718 62.8691 110.087 63.2591 110.555 63.5364C111.023 63.8051 111.556 63.9394 112.154 63.9394C112.7 63.9394 113.181 63.8224 113.597 63.5884C114.013 63.3544 114.338 62.9991 114.572 62.5224H116.353C116.015 63.3891 115.469 64.0564 114.715 64.5244C113.969 64.9924 113.116 65.2264 112.154 65.2264C111.304 65.2264 110.529 65.0314 109.827 64.6414C109.125 64.2428 108.566 63.6924 108.15 62.9904C107.742 62.2884 107.539 61.4954 107.539 60.6114ZM117.593 61.5344C117.593 60.8151 117.741 60.1781 118.035 59.6234C118.339 59.0688 118.746 58.6398 119.257 58.3364C119.777 58.0244 120.349 57.8684 120.973 57.8684C121.537 57.8684 122.026 57.9811 122.442 58.2064C122.867 58.4231 123.205 58.6961 123.456 59.0254V57.9854H124.951V65.1484H123.456V64.0824C123.205 64.4204 122.863 64.7021 122.429 64.9274C121.996 65.1528 121.502 65.2654 120.947 65.2654C120.332 65.2654 119.769 65.1094 119.257 64.7974C118.746 64.4768 118.339 64.0348 118.035 63.4714C117.741 62.8994 117.593 62.2538 117.593 61.5344ZM123.456 61.5604C123.456 61.0664 123.352 60.6374 123.144 60.2734C122.945 59.9094 122.681 59.6321 122.351 59.4414C122.022 59.2508 121.667 59.1554 121.285 59.1554C120.904 59.1554 120.549 59.2508 120.219 59.4414C119.89 59.6234 119.621 59.8964 119.413 60.2604C119.214 60.6158 119.114 61.0404 119.114 61.5344C119.114 62.0284 119.214 62.4618 119.413 62.8344C119.621 63.2071 119.89 63.4931 120.219 63.6924C120.557 63.8831 120.913 63.9784 121.285 63.9784C121.667 63.9784 122.022 63.8831 122.351 63.6924C122.681 63.5018 122.945 63.2244 123.144 62.8604C123.352 62.4878 123.456 62.0544 123.456 61.5604ZM128.38 59.0254C128.597 58.6614 128.883 58.3798 129.238 58.1804C129.602 57.9724 130.031 57.8684 130.525 57.8684V59.4024H130.148C129.567 59.4024 129.125 59.5498 128.822 59.8444C128.527 60.1391 128.38 60.6504 128.38 61.3784V65.1484H126.898V57.9854H128.38V59.0254ZM138.452 61.3914C138.452 61.6601 138.435 61.9028 138.4 62.1194H132.927C132.97 62.6914 133.183 63.1508 133.564 63.4974C133.945 63.8441 134.413 64.0174 134.968 64.0174C135.765 64.0174 136.329 63.6838 136.658 63.0164H138.257C138.04 63.6751 137.646 64.2168 137.074 64.6414C136.511 65.0574 135.809 65.2654 134.968 65.2654C134.283 65.2654 133.668 65.1138 133.122 64.8104C132.585 64.4984 132.16 64.0651 131.848 63.5104C131.545 62.9471 131.393 62.2971 131.393 61.5604C131.393 60.8238 131.54 60.1781 131.835 59.6234C132.138 59.0601 132.559 58.6268 133.096 58.3234C133.642 58.0201 134.266 57.8684 134.968 57.8684C135.644 57.8684 136.246 58.0158 136.775 58.3104C137.304 58.6051 137.715 59.0211 138.01 59.5584C138.305 60.0871 138.452 60.6981 138.452 61.3914ZM136.905 60.9234C136.896 60.3774 136.701 59.9398 136.32 59.6104C135.939 59.2811 135.466 59.1164 134.903 59.1164C134.392 59.1164 133.954 59.2811 133.59 59.6104C133.226 59.9311 133.009 60.3688 132.94 60.9234H136.905Z" fill="#0057B7"/>
</svg>
