<svg width="12" height="7" viewBox="0 0 12 7" fill="none" xmlns="http://www.w3.org/2000/svg">
<path d="M0.328889 1.91866L3.76839 5.35742C4.26836 5.83504 4.9332 6.10156 5.62464 6.10156C6.31608 6.10156 6.98092 5.83504 7.48089 5.35742L10.9204 1.91866C11.1314 1.70762 11.25 1.42138 11.25 1.12292C11.25 0.824451 11.1314 0.538211 10.9204 0.327165C10.7093 0.116119 10.4231 -0.0024457 10.1246 -0.0024457C9.82618 -0.0024457 9.53994 0.116119 9.32889 0.327165L5.88939 3.76666C5.81907 3.83697 5.7237 3.87646 5.62426 3.87646C5.52483 3.87646 5.42946 3.83697 5.35914 3.76666L1.92039 0.327165C1.70934 0.116119 1.4231 -0.0024457 1.12464 -0.0024457C0.826176 -0.0024457 0.539935 0.116119 0.328889 0.327165C0.117843 0.538211 -0.000720978 0.824451 -0.000720978 1.12292C-0.000720978 1.42138 0.117843 1.70762 0.328889 1.91866Z" fill="black"/>
</svg>
