<svg width="44" height="42" viewBox="0 0 44 42" fill="none" xmlns="http://www.w3.org/2000/svg">
<rect width="44" height="42" rx="4" fill="#DBFFE7"/>
<g clip-path="url(#clip0_4781_884)">
<path d="M28.875 11H27.5V9.5C27.5 9.224 27.2947 9 27.0417 9C26.7887 9 26.5833 9.224 26.5833 9.5V11H17.4167V9.5C17.4167 9.224 17.2113 9 16.9583 9C16.7053 9 16.5 9.224 16.5 9.5V11H15.125C12.8508 11 11 13.019 11 15.5V28.5C11 30.981 12.8508 33 15.125 33H28.875C31.1493 33 33 30.981 33 28.5V15.5C33 13.019 31.1493 11 28.875 11ZM15.125 12H28.875C30.6442 12 32.0833 13.57 32.0833 15.5V17H11.9167V15.5C11.9167 13.57 13.3558 12 15.125 12ZM28.875 32H15.125C13.3558 32 11.9167 30.43 11.9167 28.5V18H32.0833V28.5C32.0833 30.43 30.6442 32 28.875 32ZM28.4167 22.5C28.4167 22.776 28.2113 23 27.9583 23H16.0417C15.7887 23 15.5833 22.776 15.5833 22.5C15.5833 22.224 15.7887 22 16.0417 22H27.9583C28.2113 22 28.4167 22.224 28.4167 22.5ZM22 27.5C22 27.776 21.7947 28 21.5417 28H16.0417C15.7887 28 15.5833 27.776 15.5833 27.5C15.5833 27.224 15.7887 27 16.0417 27H21.5417C21.7947 27 22 27.224 22 27.5Z" fill="#00AD3B"/>
</g>
<defs>
<clipPath id="clip0_4781_884">
<rect width="22" height="24" fill="white" transform="translate(11 9)"/>
</clipPath>
</defs>
</svg>
