<svg width="44" height="42" viewBox="0 0 44 42" fill="none" xmlns="http://www.w3.org/2000/svg">
<rect width="44" height="42" rx="4" fill="#DBE7FF"/>
<g clip-path="url(#clip0_4781_877)">
<path d="M18.625 21.75C20.4858 21.75 22 20.2358 22 18.375C22 16.5142 20.4858 15 18.625 15C16.7643 15 15.25 16.5142 15.25 18.375C15.25 20.2358 16.7643 21.75 18.625 21.75ZM18.625 15.75C20.0725 15.75 21.25 16.9275 21.25 18.375C21.25 19.8225 20.0725 21 18.625 21C17.1775 21 16 19.8225 16 18.375C16 16.9275 17.1775 15.75 18.625 15.75ZM24.25 26.625V30H23.5V26.625C23.5 25.1775 22.3225 24 20.875 24H16.375C14.9275 24 13.75 25.1775 13.75 26.625V30H13V26.625C13 24.7642 14.5143 23.25 16.375 23.25H20.875C22.7358 23.25 24.25 24.7642 24.25 26.625ZM26.125 18.75C27.9858 18.75 29.5 17.2358 29.5 15.375C29.5 13.5143 27.9858 12 26.125 12C24.2642 12 22.75 13.5143 22.75 15.375C22.75 17.2358 24.2642 18.75 26.125 18.75ZM26.125 12.75C27.5725 12.75 28.75 13.9275 28.75 15.375C28.75 16.8225 27.5725 18 26.125 18C24.6775 18 23.5 16.8225 23.5 15.375C23.5 13.9275 24.6775 12.75 26.125 12.75ZM31 23.625V27H30.25V23.625C30.25 22.1775 29.0725 21 27.625 21H23.125C22.9795 21 22.8392 21.0203 22.7005 21.0428C22.8647 20.793 23.0072 20.5282 23.1242 20.25C23.1242 20.25 23.1243 20.25 23.1258 20.25H27.6257C29.4865 20.25 31 21.7642 31 23.625Z" fill="#155DFC"/>
</g>
<defs>
<clipPath id="clip0_4781_877">
<rect width="18" height="18" fill="white" transform="translate(13 12)"/>
</clipPath>
</defs>
</svg>
