<svg width="24" height="24" viewBox="0 0 24 24" fill="none" xmlns="http://www.w3.org/2000/svg">
<path d="M8 12C11.309 12 14 9.309 14 6C14 2.691 11.309 0 8 0C4.691 0 2 2.691 2 6C2 9.309 4.691 12 8 12ZM8 1C10.757 1 13 3.243 13 6C13 8.757 10.757 11 8 11C5.243 11 3 8.757 3 6C3 3.243 5.243 1 8 1ZM16 22V23.5C16 23.776 15.776 24 15.5 24C15.224 24 15 23.776 15 23.5V22C15 18.14 11.859 15 8 15C4.141 15 1 18.14 1 22V23.5C1 23.776 0.776 24 0.5 24C0.224 24 0 23.776 0 23.5V22C0 17.589 3.589 14 8 14C12.411 14 16 17.589 16 22ZM24 11.5C24 11.776 23.776 12 23.5 12H20V15.5C20 15.776 19.776 16 19.5 16C19.224 16 19 15.776 19 15.5V12H15.5C15.224 12 15 11.776 15 11.5C15 11.224 15.224 11 15.5 11H19V7.5C19 7.224 19.224 7 19.5 7C19.776 7 20 7.224 20 7.5V11H23.5C23.776 11 24 11.224 24 11.5Z" fill="black"/>
</svg>
